<svg xmlns="http://www.w3.org/2000/svg" width="40" height="40" viewBox="0 0 40 40" role="img" aria-label="North Fork Technologies">
  <defs>
    <linearGradient id="nft-hero" x1="0" y1="0" x2="1" y2="1">
      <stop offset="0%" stop-color="hsl(155 35% 25%)"></stop>
      <stop offset="100%" stop-color="hsl(210 45% 35%)"></stop>
    </linearGradient>
  </defs>
  <rect width="40" height="40" rx="10" fill="url(#nft-hero)"></rect>
  
  <g transform="translate(8 8) scale(1)" fill="none" stroke="hsl(0 0% 98%)" stroke-width="2" stroke-linecap="round" stroke-linejoin="round">
    <path d="M20 13c0 5-3.5 7.5-7.66 8.95a1 1 0 0 1-.67-.01C7.5 20.5 4 18 4 13V6a1 1 0 0 1 1-1c2 0 4.5-1.2 6.24-2.72a1.17 1.17 0 0 1 1.52 0C14.51 3.81 17 5 19 5a1 1 0 0 1 1 1z"></path>
  </g>
</svg>