<svg xmlns="http://www.w3.org/2000/svg" width="320" height="48" viewBox="0 0 320 48" role="img" aria-label="North Fork Security — Video Security &amp; Monitoring Solutions">
  <defs>
    <linearGradient id="lk-hero" x1="0" y1="0" x2="1" y2="1">
      <stop offset="0%" stop-color="hsl(155 35% 25%)"></stop>
      <stop offset="100%" stop-color="hsl(210 45% 35%)"></stop>
    </linearGradient>
  </defs>
  <rect x="0" y="4" width="40" height="40" rx="10" fill="url(#lk-hero)"></rect>
  <g transform="translate(8 12)" fill="none" stroke="hsl(0 0% 98%)" stroke-width="2" stroke-linecap="round" stroke-linejoin="round">
    <path d="M20 13c0 5-3.5 7.5-7.66 8.95a1 1 0 0 1-.67-.01C7.5 20.5 4 18 4 13V6a1 1 0 0 1 1-1c2 0 4.5-1.2 6.24-2.72a1.17 1.17 0 0 1 1.52 0C14.51 3.81 17 5 19 5a1 1 0 0 1 1 1z"></path>
  </g>
  <text x="52" y="22" font-family="Inter, system-ui, sans-serif" font-weight="700" font-size="16" fill="hsl(210 15% 15%)">North Fork Security</text>
  <text x="52" y="38" font-family="Inter, system-ui, sans-serif" font-weight="400" font-size="10" fill="hsl(210 15% 45%)">Video Security &amp; Monitoring Solutions</text>
</svg>